<?xml version="1.0" encoding="utf-8"?>
<!-- Generator: Adobe Illustrator 23.0.1, SVG Export Plug-In . SVG Version: 6.00 Build 0)  -->
<svg version="1.1" id="Layer_1" xmlns="http://www.w3.org/2000/svg" xmlns:xlink="http://www.w3.org/1999/xlink" x="0px" y="0px"
	 viewBox="0 0 275.9890137 52.2438202" style="enable-background:new 0 0 275.9890137 52.2438202;" xml:space="preserve">
<g>
	<path d="M152.8836212,26.1219101c0,7.078331-4.9371338,13.0028648-11.5539246,14.5108337
		c-1.073288,0.2522392-2.1895142,0.381031-3.3379517,0.381031c-1.1484222,0-2.2646179-0.1287918-3.3379059-0.381031
		c-6.6168213-1.5079689-11.5539551-7.4325027-11.5539551-14.5108337c0-7.056879,4.9156799-12.9760427,11.5110168-14.505497
		c1.0840302-0.2522068,2.2163391-0.3863678,3.3808441-0.3863678c1.1645203,0,2.2968597,0.134161,3.3808594,0.3863678
		C147.9679718,13.1458673,152.8836212,19.0650311,152.8836212,26.1219101z"/>
	<path d="M155.1136627,26.1219101c0,8.1383057-5.6764679,14.9500351-13.2841187,16.6838226
		c-1.2340088,0.2900124-2.517395,0.4380875-3.8377991,0.4380875c-1.3203888,0-2.6037445-0.1480751-3.8377533-0.4380875
		c-7.6076889-1.7337875-13.2841492-8.545517-13.2841492-16.6838226c0-8.1136417,5.6517944-14.9191952,13.234787-16.6776848
		C135.3509827,9.1542511,136.6528625,9,137.991745,9c1.3388977,0,2.6408081,0.1542511,3.8871307,0.4442263
		C149.4618988,11.2027149,155.1136627,18.0082684,155.1136627,26.1219101z"/>
	<path d="M111.737999,26.1197262c0,4.4493256,1.095253,8.6591167,3.0575104,12.3555737L1.1540941,26.1197262l113.6414185-12.3441544
		C112.833252,17.4719601,111.737999,21.6817493,111.737999,26.1197262z"/>
	<path d="M161.1830597,38.4752998c1.9622498-3.6964569,3.0575104-7.9062481,3.0575104-12.3555737
		c0-4.4379768-1.0952606-8.6477661-3.0575104-12.3441544L274.835907,26.1197262L161.1830597,38.4752998z"/>
</g>
</svg>
